<svg xmlns="http://www.w3.org/2000/svg" xmlns:xlink="http://www.w3.org/1999/xlink" width="1080" zoomAndPan="magnify" viewBox="0 0 810 809.999993" height="1080" preserveAspectRatio="xMidYMid meet" version="1.0"><defs><clipPath id="062136657c"><path d="M 26.058594 24.648438 L 805.308594 24.648438 L 805.308594 797.898438 L 26.058594 797.898438 Z M 26.058594 24.648438 " clip-rule="nonzero"/></clipPath><clipPath id="0bd76b1c7b"><path d="M 450 269 L 779 269 L 779 773.898438 L 450 773.898438 Z M 450 269 " clip-rule="nonzero"/></clipPath><clipPath id="3cd60d0a10"><path d="M 0.640625 0.648438 L 713 0.648438 L 713 773.898438 L 0.640625 773.898438 Z M 0.640625 0.648438 " clip-rule="nonzero"/></clipPath><clipPath id="a98e3e2382"><rect x="0" width="780" y="0" height="774"/></clipPath><clipPath id="781671ec18"><path d="M 5 12.027344 L 783.671875 12.027344 L 783.671875 785.277344 L 5 785.277344 Z M 5 12.027344 " clip-rule="nonzero"/></clipPath><clipPath id="665f5f7d7f"><path d="M 450 269 L 778.671875 269 L 778.671875 773.277344 L 450 773.277344 Z M 450 269 " clip-rule="nonzero"/></clipPath><clipPath id="677afc42ff"><path d="M 0.0390625 0.0273438 L 712 0.0273438 L 712 773.277344 L 0.0390625 773.277344 Z M 0.0390625 0.0273438 " clip-rule="nonzero"/></clipPath><clipPath id="707f2ad768"><rect x="0" width="779" y="0" height="774"/></clipPath></defs><g clip-path="url(#062136657c)"><g transform="matrix(1, 0, 0, 1, 26, 24)"><g clip-path="url(#a98e3e2382)"><g clip-path="url(#0bd76b1c7b)"><path fill="#070f40" d="M 559.214844 612.445312 C 626.40625 561.199219 669.867188 480.410156 669.867188 389.679688 C 669.867188 368.226562 667.566406 347.144531 662.898438 326.726562 L 759.9375 269.742188 C 772.445312 308.320312 778.808594 348.535156 778.808594 389.679688 C 778.808594 442.171875 768.527344 493.113281 748.230469 541.117188 C 728.632812 587.445312 700.601562 629.035156 664.894531 664.742188 C 633.980469 695.65625 598.644531 720.816406 559.660156 739.738281 C 553.617188 742.679688 547.4375 745.460938 541.21875 748.078125 C 512.082031 760.410156 481.863281 769.035156 450.804688 773.914062 L 450.804688 451.492188 L 559.214844 387.574219 Z M 559.214844 612.445312 " fill-opacity="1" fill-rule="nonzero"/></g><g clip-path="url(#3cd60d0a10)"><path fill="#070f40" d="M 33.105469 234.300781 C 53.777344 186.886719 83.28125 144.640625 120.773438 108.71875 C 126.707031 103.035156 132.90625 97.457031 139.199219 92.144531 L 139.214844 92.164062 C 140.265625 91.273438 141.316406 90.382812 142.386719 89.492188 L 389.832031 234.90625 L 524.699219 155.667969 L 287.535156 14.226562 C 320.519531 5.28125 354.871094 0.648438 389.832031 0.648438 C 430.15625 0.648438 469.585938 6.742188 507.449219 18.753906 C 518.871094 22.371094 530.152344 26.539062 541.269531 31.242188 C 576.125 45.980469 608.285156 65.527344 637.277344 89.507812 C 645.027344 95.925781 652.582031 102.640625 659.871094 109.679688 L 660.101562 109.824219 L 664.628906 114.347656 L 664.878906 114.597656 C 682.515625 132.238281 698.269531 151.304688 712.078125 171.6875 C 712.097656 171.707031 712.097656 171.722656 712.113281 171.742188 L 389.8125 361.0625 L 161.558594 226.925781 C 127.777344 274.035156 109.492188 330.289062 109.492188 389.660156 C 109.492188 480.390625 153.21875 561.179688 219.84375 612.425781 L 219.84375 387.59375 L 328.820312 451.507812 L 328.820312 773.914062 C 297.761719 769.035156 267.5625 760.410156 238.410156 748.078125 C 232.191406 745.441406 226.042969 742.660156 220.003906 739.738281 C 181.015625 720.816406 145.664062 695.65625 114.75 664.742188 C 79.042969 629.035156 50.996094 587.445312 31.394531 541.117188 C 11.136719 493.097656 0.835938 442.152344 0.835938 389.660156 C 0.835938 335.6875 11.6875 283.425781 33.105469 234.300781 Z M 33.105469 234.300781 " fill-opacity="1" fill-rule="nonzero"/></g></g></g></g><g clip-path="url(#781671ec18)"><g transform="matrix(1, 0, 0, 1, 5, 12)"><g clip-path="url(#707f2ad768)"><g clip-path="url(#665f5f7d7f)"><path fill="#155dfc" d="M 558.574219 611.820312 C 625.769531 560.578125 669.226562 479.789062 669.226562 389.054688 C 669.226562 367.601562 666.929688 346.523438 662.261719 326.105469 L 759.300781 269.121094 C 771.808594 307.695312 778.167969 347.914062 778.167969 389.054688 C 778.167969 441.550781 767.886719 492.492188 747.59375 540.496094 C 727.992188 586.824219 699.964844 628.410156 664.257812 664.121094 C 633.339844 695.035156 598.007812 720.195312 559.019531 739.117188 C 552.980469 742.058594 546.796875 744.835938 540.578125 747.457031 C 511.445312 759.785156 481.226562 768.410156 450.167969 773.292969 L 450.167969 450.867188 L 558.574219 386.953125 Z M 558.574219 611.820312 " fill-opacity="1" fill-rule="nonzero"/></g><g clip-path="url(#677afc42ff)"><path fill="#155dfc" d="M 32.46875 233.679688 C 53.136719 186.265625 82.644531 144.015625 120.132812 108.09375 C 126.066406 102.410156 132.269531 96.832031 138.558594 91.523438 L 138.578125 91.542969 C 139.628906 90.652344 140.679688 89.757812 141.746094 88.867188 L 389.191406 234.285156 L 524.058594 155.046875 L 286.898438 13.605469 C 319.878906 4.660156 354.234375 0.0273438 389.191406 0.0273438 C 429.515625 0.0273438 468.949219 6.121094 506.8125 18.128906 C 518.234375 21.746094 529.511719 25.917969 540.632812 30.621094 C 575.484375 45.355469 607.648438 64.902344 636.636719 88.886719 C 644.386719 95.300781 651.945312 102.019531 659.230469 109.058594 L 659.460938 109.199219 L 664.238281 113.976562 C 681.878906 131.617188 697.628906 150.679688 711.4375 171.066406 C 711.457031 171.082031 711.457031 171.101562 711.476562 171.117188 L 389.175781 360.441406 L 160.921875 226.300781 C 127.136719 273.414062 108.855469 329.667969 108.855469 389.039062 C 108.855469 479.769531 152.582031 560.558594 219.203125 611.804688 L 219.203125 386.972656 L 328.183594 450.886719 L 328.183594 773.292969 C 297.125 768.410156 266.921875 759.785156 237.773438 747.457031 C 231.554688 744.820312 225.40625 742.039062 219.363281 739.117188 C 180.378906 720.195312 145.027344 695.035156 114.113281 664.121094 C 78.402344 628.410156 50.355469 586.824219 30.757812 540.496094 C 10.496094 492.472656 0.199219 441.53125 0.199219 389.039062 C 0.199219 335.066406 11.050781 282.804688 32.46875 233.679688 Z M 32.46875 233.679688 " fill-opacity="1" fill-rule="nonzero"/></g></g></g></g></svg>